<svg xmlns="http://www.w3.org/2000/svg" viewBox="0 0 200 238">
  <path fill="#A4C639" d="M46.8 182.5c0 8.8-7.2 16-16 16s-16-7.2-16-16v-60c0-8.8 7.2-16 16-16s16 7.2 16 16v60zM185.2 182.5c0 8.8-7.2 16-16 16s-16-7.2-16-16v-60c0-8.8 7.2-16 16-16s16 7.2 16 16v60z"/>
  <path fill="#A4C639" d="M56 106.5h88c5.5 0 10 4.5 10 10v80c0 5.5-4.5 10-10 10H56c-5.5 0-10-4.5-10-10v-80c0-5.5 4.5-10 10-10z"/>
  <path fill="#A4C639" d="M76 206.5c0 8.8-7.2 16-16 16s-16-7.2-16-16v-50h32v50zM156 206.5c0 8.8-7.2 16-16 16s-16-7.2-16-16v-50h32v50z"/>
  <path fill="#A4C639" d="M46 106.5c0-30.9 25.1-56 56-56s56 25.1 56 56H46z"/>
  <circle fill="#fff" cx="76" cy="82.5" r="6"/>
  <circle fill="#fff" cx="124" cy="82.5" r="6"/>
  <line x1="62" y1="42" x2="76" y2="58" stroke="#A4C639" stroke-width="4" stroke-linecap="round"/>
  <line x1="138" y1="42" x2="124" y2="58" stroke="#A4C639" stroke-width="4" stroke-linecap="round"/>
</svg>